<svg width="254" height="122" viewBox="0 0 254 122" fill="none" xmlns="http://www.w3.org/2000/svg">
<path d="M96.9855 118.267C97.0024 118.494 96.9691 118.722 96.8879 118.935C96.8066 119.148 96.6793 119.342 96.5146 119.503C96.3499 119.664 96.1516 119.788 95.9333 119.868C95.715 119.947 95.4818 119.98 95.2494 119.963H90.1873C89.1326 119.963 88.5648 119.392 88.5648 118.267V22.5735C88.5244 22.3567 88.5384 22.1335 88.6057 21.9231C88.673 21.7127 88.7914 21.5214 88.9509 21.3655C89.1104 21.2096 89.3062 21.0939 89.5216 21.0282C89.7369 20.9624 89.9653 20.9487 90.1873 20.9882H95.2494C96.4014 20.9882 96.9855 21.4955 96.9855 22.5735V118.267Z" fill="white"/>
<path d="M128.269 118.267C128.301 118.487 128.283 118.712 128.214 118.925C128.146 119.137 128.029 119.332 127.874 119.495C127.718 119.657 127.527 119.784 127.315 119.865C127.103 119.946 126.875 119.98 126.648 119.963H121.54C120.486 119.963 119.919 119.392 119.919 118.267V49.4142C119.919 48.1776 120.454 47.5752 121.54 47.5752H126.648C127.799 47.5752 128.367 48.1776 128.367 49.4142L128.269 118.267ZM128.269 35.5739C128.301 35.7945 128.283 36.0192 128.214 36.2317C128.146 36.4441 128.029 36.6389 127.874 36.8017C127.718 36.9644 127.527 37.091 127.315 37.1721C127.103 37.2532 126.875 37.2867 126.648 37.2703H121.54C120.486 37.2703 119.919 36.7154 119.919 35.5739V23.8739C119.919 22.7324 120.454 22.1776 121.54 22.1776H126.648C126.875 22.1611 127.103 22.1947 127.315 22.2758C127.527 22.3569 127.718 22.4835 127.874 22.6462C128.029 22.8089 128.146 23.0037 128.214 23.2162C128.283 23.4286 128.301 23.6534 128.269 23.8739V35.5739Z" fill="white"/>
<path d="M181.182 47.3678C182.203 47.3678 182.753 47.9878 182.753 49.2121V53.1709C182.753 54.2998 182.235 54.8722 181.182 54.8722H163.266V118.262C163.266 119.391 162.763 119.963 161.695 119.963H156.839C156.614 119.98 156.388 119.947 156.176 119.867C155.965 119.788 155.773 119.663 155.613 119.502C155.454 119.34 155.33 119.146 155.252 118.932C155.173 118.718 155.141 118.49 155.157 118.262V54.8722H144.534C144.309 54.8887 144.083 54.8561 143.871 54.7765C143.66 54.6968 143.468 54.5721 143.308 54.4107C143.149 54.2493 143.025 54.055 142.947 53.8411C142.868 53.6272 142.836 53.3986 142.852 53.1709V49.2121C142.852 47.9878 143.418 47.3678 144.534 47.3678H155.157V40.0065C155.157 33.4031 156.729 28.3789 159.872 24.9341C163.015 21.4999 167.541 19.7669 173.513 19.7669C176.651 19.6896 179.778 20.1685 182.753 21.1819C183.107 21.2879 183.413 21.5164 183.617 21.8274C183.821 22.1384 183.91 22.5122 183.869 22.8831L183.728 26.6989C183.728 27.9391 183.162 28.2888 182.046 27.9868C179.564 27.3617 177.014 27.0519 174.456 27.0646C167.007 27.0646 163.277 31.4528 163.266 40.2291V47.3042L181.182 47.3678Z" fill="white"/>
<path d="M199.182 79.9897H245.905V78.8441C245.905 70.825 243.993 64.4075 240.169 59.5918C236.345 54.7761 230.703 52.3682 223.243 52.3682C207.957 52.3682 199.936 61.5754 199.182 79.9897ZM245.952 109.266C246.99 108.709 247.775 109.027 248.341 110.252L249.74 113.944C250.007 114.787 249.645 115.535 248.608 115.917C241.738 119.501 234.098 121.305 226.37 121.167C215.275 121.167 206.626 117.789 200.424 111.032C194.221 104.275 191.12 94.999 191.12 83.2037C191.12 71.122 193.964 61.7557 199.653 55.1049C205.343 48.4541 213.2 45.1234 223.227 45.1128C233.013 45.1128 240.567 48.2526 245.889 54.5321C251.212 60.8116 253.873 69.096 253.873 79.3851V85.1926C253.873 86.3223 253.26 86.895 252.05 86.895H199.182C199.559 95.2006 202.147 101.782 206.946 106.641C211.744 111.499 218.361 113.965 226.795 114.039C233.479 114.134 240.075 112.491 245.952 109.266Z" fill="white"/>
<path d="M13.7255 1.42174V5.77809C13.6692 7.57061 14.1383 9.34116 15.0766 10.878C16.0149 12.4148 17.3828 13.6529 19.0167 14.4441L36.7224 24.5882L54.7282 14.2885C56.2781 13.4806 57.5585 12.2495 58.4157 10.7427C59.273 9.23594 59.6708 7.51755 59.5614 5.79364V1.4373C59.5616 1.2689 59.5177 1.1033 59.434 0.956454C59.3504 0.809608 59.2297 0.686472 59.0837 0.598916C58.9377 0.511361 58.7712 0.46234 58.6004 0.456579C58.4295 0.450818 58.26 0.488512 58.1083 0.566026L36.8645 11.4569L15.1154 0.550468C14.9926 0.488378 14.8583 0.451337 14.7205 0.441559C14.4566 0.441559 14.2035 0.544827 14.0169 0.728646C13.8303 0.912466 13.7255 1.16178 13.7255 1.42174Z" fill="#991C96"/>
<path d="M57.2875 36.7086C56.6187 36.7086 55.977 36.9724 55.5025 37.4426C55.0281 37.9127 54.7595 38.5509 54.7553 39.2178V88.8843C54.7553 99.3602 51.3424 105.194 36.0233 105.21C20.7043 105.226 17.2914 99.3289 17.2914 88.8843V48.298C17.2844 45.7808 16.4613 43.3333 14.9448 41.3209C13.4283 39.3086 11.2997 37.8391 8.87691 37.132C7.82093 36.8158 6.7238 36.6573 5.62123 36.6616H2.9632C2.62873 36.6615 2.2976 36.7279 1.98917 36.857C1.68074 36.986 1.4012 37.175 1.1669 37.413C0.932594 37.651 0.748226 37.9332 0.624572 38.2431C0.500918 38.553 0.44046 38.8844 0.446731 39.2178V88.8843C0.446731 109.272 11.4563 121.128 35.9604 121.175H36.1177C60.5589 121.128 71.6472 109.272 71.6472 88.8843V48.3607C71.6347 45.2715 70.3974 42.3126 68.2051 40.1296C66.0129 37.9466 63.0438 36.7169 59.9456 36.7086H57.2875Z" fill="#991C96"/>
</svg>
